<svg xmlns="http://www.w3.org/2000/svg" width="224" height="127" viewBox="0 0 224 127" version="1.1"><path d="M 151.750 7.689 C 150.787 7.941, 149.973 8.901, 149.939 9.823 C 149.821 13.049, 143.306 27.501, 141.910 27.635 C 141.134 27.709, 139.240 27.821, 137.699 27.885 C 134.273 28.026, 129.557 32.917, 124.483 41.594 C 120.001 49.257, 117.219 52.298, 115.346 51.579 C 114.537 51.269, 114.166 51.460, 114.507 52.011 C 114.843 52.555, 114.690 53, 114.166 53 C 113.642 53, 112.974 52.373, 112.680 51.608 C 111.569 48.713, 112.816 46.435, 116.570 44.500 C 121.014 42.209, 127 36.468, 127 34.496 C 127 31.630, 125.680 30, 123.361 30 C 119.883 30, 114.049 32.642, 111.752 35.257 C 110.669 36.491, 109.348 37.376, 108.817 37.225 C 108.286 37.074, 108.097 37.347, 108.397 37.833 C 109.079 38.936, 99.988 52.210, 98.145 52.802 C 96.261 53.406, 97.236 49.991, 101.909 39.610 L 104.110 34.720 100.305 35.449 C 96.356 36.205, 91.947 36.281, 91.271 35.604 C 90.740 35.074, 95.105 24.923, 97.154 21.922 C 98.653 19.728, 99.023 19.629, 101.081 20.869 C 103.066 22.064, 103.512 22.020, 104.608 20.522 C 107.465 16.614, 103.154 14.667, 97.297 17.219 C 92.600 19.265, 88.327 24.143, 84.487 31.844 C 81.601 37.630, 80.439 39.087, 79.006 38.712 C 77.696 38.369, 77.061 38.902, 76.733 40.618 C 76.384 42.441, 76.717 43, 78.148 43 C 79.903 43, 79.880 43.210, 77.779 46.417 C 76.547 48.296, 75.123 49.576, 74.615 49.262 C 74.107 48.948, 74.013 49.212, 74.406 49.848 C 75.099 50.969, 69.095 60.429, 68.237 59.570 C 67.308 58.641, 69.208 53.010, 70.236 53.646 C 70.838 54.018, 71.021 53.843, 70.654 53.249 C 70.293 52.665, 72.035 47.830, 74.524 42.504 C 83.289 23.744, 83.380 23, 76.893 23 C 74.140 23, 73 23.429, 73 24.466 C 73 25.272, 70.246 32.584, 66.881 40.716 C 58.410 61.183, 58.083 65.944, 65.146 65.985 C 67.798 66, 74 60.266, 74 57.799 C 74 57.176, 74.251 56.918, 74.559 57.226 C 75.491 58.157, 69.085 71.302, 66.264 74.246 C 64.813 75.761, 62.754 77, 61.688 77 C 60.057 77, 59.848 76.512, 60.366 73.920 C 61.122 70.141, 59.235 70.357, 57.010 74.304 C 55.664 76.691, 55.686 77.115, 57.244 78.672 C 58.266 79.694, 60.375 80.357, 62.419 80.299 C 66.082 80.196, 74.244 76.204, 73.443 74.908 C 73.181 74.485, 73.453 73.838, 74.046 73.471 C 75.375 72.650, 83.870 54.755, 86.967 46.250 C 88.230 42.784, 89.847 40, 90.597 40 C 91.637 40, 91.724 40.595, 90.975 42.565 C 89.786 45.692, 89.774 46, 90.839 46 C 91.301 46, 92.192 44.875, 92.818 43.500 C 93.445 42.125, 94.392 41, 94.923 41 C 95.455 41, 94.760 43.467, 93.380 46.481 C 91.878 49.761, 90.997 53.275, 91.185 55.231 C 91.462 58.106, 91.890 58.538, 94.733 58.812 C 97.958 59.123, 102.064 56.308, 103.153 53.040 C 103.475 52.075, 104.355 52.446, 106.256 54.347 C 109.309 57.400, 110.696 57.572, 115.638 55.507 C 117.604 54.685, 119.626 54.269, 120.131 54.581 C 120.636 54.893, 120.943 54.778, 120.812 54.324 C 120.682 53.871, 121.160 52.444, 121.875 51.152 L 123.175 48.805 124.644 50.902 C 126.604 53.700, 129.913 53.548, 134.477 50.451 C 137.923 48.112, 138.378 48.032, 139.977 49.479 C 141.940 51.255, 145.597 50.396, 147.904 47.615 C 148.632 46.739, 149.695 46.312, 150.268 46.666 C 150.840 47.019, 151.019 46.840, 150.666 46.268 C 150.312 45.695, 150.708 44.658, 151.546 43.962 C 152.806 42.916, 153.416 43.070, 155.074 44.849 C 156.176 46.032, 158.024 47, 159.179 47 C 162.356 47, 169.905 42.901, 172.577 39.726 C 175.549 36.194, 177.463 29.980, 176.617 26.609 C 175.777 23.265, 171.452 21.114, 167.371 22.010 C 162.706 23.035, 155.471 29.543, 153.983 34.052 C 152.668 38.037, 147.544 45, 145.927 45 C 143.712 45, 145.112 40.046, 150.730 28 C 153.489 22.086, 158 9.687, 158 8.019 C 158 6.995, 155.009 6.838, 151.750 7.689 M 54.537 26.353 C 51.767 29.297, 47.363 35.319, 44.752 39.736 C 41.986 44.413, 39.167 47.984, 38.002 48.289 C 35.968 48.821, 35.140 52, 37.035 52 C 39.735 52, 30.731 62.031, 25.670 64.663 C 22.677 66.219, 17.343 66.227, 15.250 64.680 C 12.060 62.320, 14.784 51.888, 19.574 48.120 C 25.119 43.759, 31.059 47.663, 28.789 54.176 C 27.455 58.003, 28.286 58.683, 30.887 55.891 C 33.517 53.067, 34.590 47.591, 33.138 44.403 C 30.602 38.838, 21.418 39.338, 16.389 45.315 C 7.230 56.199, 6.985 70.718, 15.912 73.603 C 23.742 76.134, 33.058 69.931, 40.152 57.462 C 44.111 50.504, 44.625 50, 47.755 50 C 51.107 50, 51.110 50.005, 49.648 52.750 C 47.287 57.180, 44 65.738, 44 67.454 C 44 68.677, 44.628 68.886, 46.750 68.373 C 52.855 66.895, 53.740 66.201, 54.462 62.322 C 54.854 60.220, 57.565 52.875, 60.488 46 C 67.516 29.469, 68.548 25.892, 67.079 23.147 C 66.273 21.642, 64.979 21, 62.752 21 C 60.205 21, 58.575 22.062, 54.537 26.353 M 167.206 26.652 C 162.772 31.709, 159.604 41.019, 161.846 42.405 C 164.469 44.026, 171.932 32.496, 171.978 26.750 C 172.006 23.289, 170.188 23.251, 167.206 26.652 M 56.276 28.250 C 53.223 31.433, 44.781 45.115, 45.455 45.788 C 45.642 45.975, 47.387 45.830, 49.332 45.465 C 52.674 44.839, 53.094 44.290, 56.935 35.532 C 59.171 30.434, 61 25.978, 61 25.631 C 61 24.198, 59.209 25.191, 56.276 28.250 M 138.976 31.197 C 135.585 34.097, 133.806 37.048, 132.527 41.897 C 130.398 49.970, 132.092 49.515, 137.752 40.496 C 139.945 37.002, 141.100 33.688, 140.795 31.763 C 140.547 30.190, 140.258 30.101, 138.976 31.197 M 181 33.914 C 181 37.428, 174.301 43.717, 166.656 47.379 C 160.323 50.413, 125.988 61.990, 112.500 65.639 C 109.750 66.383, 106.375 67.406, 105 67.912 C 103.625 68.418, 99.125 70.036, 95 71.507 C 70.267 80.327, 59.978 90.798, 64.474 102.571 C 67.007 109.204, 68.634 109.928, 69.408 104.768 C 71.087 93.571, 78.154 85.068, 90.403 79.506 C 98.757 75.713, 118.815 68.914, 138.651 63.151 C 175.035 52.581, 189.104 44.152, 184.870 35.460 C 183.165 31.960, 181 31.095, 181 33.914 M 118.655 35.829 C 117.745 36.835, 117 38.147, 117 38.745 C 117 39.344, 116.438 40.034, 115.750 40.280 C 115.063 40.525, 114.827 41.077, 115.226 41.506 C 116.202 42.554, 118.801 40.285, 120.592 36.823 C 122.241 33.633, 121.149 33.073, 118.655 35.829" stroke="none" fill="#Ffffff" fill-rule="evenodd"/></svg>