<svg xmlns="http://www.w3.org/2000/svg" width="396" height="430" viewBox="0 0 396 430" version="1.1"><path d="M 127.488 1.655 C 126.577 2.566, 125.439 4.345, 124.958 5.609 C 123.767 8.744, 121.544 31.781, 121.544 41 C 121.544 52.709, 123.950 74.092, 125.676 77.730 C 127.589 81.761, 129.953 82.444, 139.505 81.721 C 153.052 80.697, 171.169 72.780, 182.189 63.070 C 186.836 58.974, 186.865 58.910, 185.501 55.719 C 183.918 52.017, 183.836 52.015, 174.500 55.366 C 170.650 56.748, 165.025 58.122, 162 58.418 L 156.500 58.957 162 57.655 C 168.936 56.014, 177.675 53.146, 181.250 51.339 C 183.938 49.980, 184 49.748, 184 41.111 L 184 32.273 178.158 29.651 C 174.945 28.209, 168.758 26.156, 164.408 25.087 C 160.059 24.019, 157.643 23.112, 159.040 23.072 C 162.436 22.976, 172.350 25.554, 178.370 28.100 C 183.490 30.265, 183.929 30.129, 185.761 25.811 C 186.808 23.342, 186.601 22.857, 183.232 19.898 C 178.266 15.539, 167.600 8.757, 161.515 6.089 C 148.720 0.481, 130.974 -1.831, 127.488 1.655 M 248 2.043 C 232.924 5.927, 210.008 19.823, 210.832 24.581 C 211.015 25.636, 211.465 28.396, 211.832 30.712 L 212.500 34.925 217.500 31.798 C 225.140 27.021, 231.985 24.204, 237.500 23.567 L 242.500 22.989 236.500 24.796 C 229.753 26.827, 217.354 33.089, 214.128 36.096 C 211.104 38.913, 211.368 43.326, 214.750 46.500 C 218.274 49.806, 228.289 54.768, 236.269 57.162 L 242.500 59.031 237.500 58.504 C 232.636 57.991, 221.822 53.359, 215.250 48.973 L 212 46.804 212 50.355 C 212 52.308, 211.491 55.023, 210.869 56.388 C 209.871 58.579, 210.076 59.171, 212.619 61.434 C 227.902 75.030, 254.903 84.815, 267.681 81.388 C 271.020 80.492, 272.807 74.555, 274.177 59.803 C 275.719 43.202, 275.719 38.793, 274.172 22.136 C 272.851 7.901, 271.397 2.818, 268.150 1.080 C 265.118 -0.542, 256.420 -0.127, 248 2.043 M 98.280 11.420 C 58.073 24.610, 24.446 54.110, 6.042 92.336 C -1.331 107.649, -1.454 106.462, 8.231 113.568 C 12.779 116.905, 22.439 123.655, 29.699 128.568 L 42.898 137.500 29.949 150.513 C 22.827 157.671, 17 163.844, 17 164.232 C 17 164.619, 33.494 188.913, 53.653 218.218 C 112.205 303.335, 153.751 364.100, 176.800 398.333 C 188.588 415.842, 198.562 429.792, 198.964 429.333 C 199.365 428.875, 208.452 415.450, 219.156 399.500 C 239.252 369.556, 295.862 286.745, 349.331 209.075 L 379.914 164.651 366.819 151.163 C 355.850 139.865, 353.975 137.499, 355.272 136.588 C 356.124 135.989, 364.285 130.374, 373.407 124.109 C 382.530 117.844, 391.673 111.266, 393.726 109.491 L 397.458 106.265 391.649 94.382 C 371.410 52.989, 338.180 23.884, 295.911 10.532 C 291.407 9.109, 287.509 8.158, 287.249 8.418 C 286.989 8.678, 287.304 13.434, 287.950 18.988 C 289.948 36.173, 290.914 66.404, 289.897 79.917 C 288.062 104.305, 282.183 132.483, 269.015 180 C 263.643 199.385, 261.979 204.995, 239.653 279 C 217.882 351.166, 206.138 393.489, 199.278 424.500 C 198.399 428.474, 198.378 428.434, 196.111 418.500 C 189.311 388.704, 177.566 346.714, 157.790 281.500 C 128.558 185.104, 119.088 151.012, 112.522 118.526 C 107.101 91.707, 106.490 85.658, 106.608 60 C 106.703 39.117, 107.324 29.367, 109.617 12.750 C 109.977 10.137, 109.873 8.015, 109.386 8.033 C 108.899 8.052, 103.901 9.576, 98.280 11.420 M 192.419 22.075 C 186.531 23.785, 185.546 25.992, 185.157 38.351 C 184.750 51.303, 185.612 55.621, 189.131 58.248 C 194.552 62.296, 207.377 60.902, 210.011 55.979 C 211.288 53.594, 211.303 28.434, 210.029 26.055 C 208.852 23.855, 201.986 20.966, 198.230 21.090 C 196.728 21.140, 194.113 21.583, 192.419 22.075 M 192.881 108.503 C 190.416 109.843, 187 115.359, 187 118 C 187 120.751, 190.468 126.191, 193.085 127.544 C 197.861 130.014, 201.798 129.402, 205.600 125.600 C 209.257 121.943, 210.067 117.436, 207.915 112.712 C 205.613 107.662, 198.233 105.595, 192.881 108.503 M 192.973 185.704 C 187.491 189.482, 186.011 194.114, 188.566 199.497 C 192.398 207.573, 204.372 208.063, 207.915 200.288 C 210.067 195.564, 209.257 191.057, 205.600 187.400 C 201.701 183.501, 197.071 182.879, 192.973 185.704 M 193.372 262.588 C 189.528 264.485, 186.452 270.682, 187.427 274.566 C 187.799 276.046, 189.395 278.549, 190.974 280.128 C 193.286 282.440, 194.724 283, 198.346 283 C 209.896 283, 213.329 267.841, 202.989 262.494 C 199.364 260.620, 197.323 260.640, 193.372 262.588" stroke="none" fill="#FEB54B" fill-rule="evenodd"/></svg>